<?xml version="1.0" standalone="no"?><!DOCTYPE svg PUBLIC "-//W3C//DTD SVG 1.1//EN" "http://www.w3.org/Graphics/SVG/1.1/DTD/svg11.dtd"><svg xmlns:xlink="http://www.w3.org/1999/xlink" version="1.1" class="highcharts-root" style="font-family: Helvetica, Arial, sans-serif; font-size: 1rem;" xmlns="http://www.w3.org/2000/svg" width="600" height="400" viewBox="0 0 600 400" aria-label="Interactive chart" aria-hidden="false"><desc aria-hidden="true">Created with Highcharts 11.2.0</desc><defs aria-hidden="true"><filter id="highcharts-drop-shadow-1"><feDropShadow dx="1" dy="1" flood-color="#000000" flood-opacity="0.75" stdDeviation="2.5"></feDropShadow></filter><clipPath id="highcharts-dfv1kg7-81-"><rect x="0" y="0" width="393" height="295" fill="none"></rect></clipPath><clipPath id="highcharts-dfv1kg7-94-"><rect x="0" y="0" width="393" height="295" fill="none"></rect></clipPath></defs><rect fill="#ffffff" class="highcharts-background" filter="none" x="0" y="0" width="600" height="400" rx="0" ry="0" aria-hidden="true"></rect><rect fill="none" class="highcharts-plot-background" x="84" y="61" width="393" height="295" filter="none" aria-hidden="true"></rect><g class="highcharts-grid highcharts-xaxis-grid" data-z-index="1" aria-hidden="true"><path fill="none" stroke="#e6e6e6" stroke-width="0" stroke-dasharray="none" data-z-index="1" class="highcharts-grid-line" d="M 87.5 61 L 87.5 356" opacity="1"></path><path fill="none" stroke="#e6e6e6" stroke-width="0" stroke-dasharray="none" data-z-index="1" class="highcharts-grid-line" d="M 157.5 61 L 157.5 356" opacity="1"></path><path fill="none" stroke="#e6e6e6" stroke-width="0" stroke-dasharray="none" data-z-index="1" class="highcharts-grid-line" d="M 227.5 61 L 227.5 356" opacity="1"></path><path fill="none" stroke="#e6e6e6" stroke-width="0" stroke-dasharray="none" data-z-index="1" class="highcharts-grid-line" d="M 297.5 61 L 297.5 356" opacity="1"></path><path fill="none" stroke="#e6e6e6" stroke-width="0" stroke-dasharray="none" data-z-index="1" class="highcharts-grid-line" d="M 367.5 61 L 367.5 356" opacity="1"></path><path fill="none" stroke="#e6e6e6" stroke-width="0" stroke-dasharray="none" data-z-index="1" class="highcharts-grid-line" d="M 437.5 61 L 437.5 356" opacity="1"></path></g><g class="highcharts-grid highcharts-yaxis-grid" data-z-index="1" aria-hidden="true"><path fill="none" stroke="#e6e6e6" stroke-width="1" stroke-dasharray="none" data-z-index="1" class="highcharts-grid-line" d="M 84 356.5 L 477 356.5" opacity="1"></path><path fill="none" stroke="#e6e6e6" stroke-width="1" stroke-dasharray="none" data-z-index="1" class="highcharts-grid-line" d="M 84 297.5 L 477 297.5" opacity="1"></path><path fill="none" stroke="#e6e6e6" stroke-width="1" stroke-dasharray="none" data-z-index="1" class="highcharts-grid-line" d="M 84 238.5 L 477 238.5" opacity="1"></path><path fill="none" stroke="#e6e6e6" stroke-width="1" stroke-dasharray="none" data-z-index="1" class="highcharts-grid-line" d="M 84 179.5 L 477 179.5" opacity="1"></path><path fill="none" stroke="#e6e6e6" stroke-width="1" stroke-dasharray="none" data-z-index="1" class="highcharts-grid-line" d="M 84 120.5 L 477 120.5" opacity="1"></path><path fill="none" stroke="#e6e6e6" stroke-width="1" stroke-dasharray="none" data-z-index="1" class="highcharts-grid-line" d="M 84 60.5 L 477 60.5" opacity="1"></path></g><rect fill="none" class="highcharts-plot-border" data-z-index="1" stroke="#cccccc" stroke-width="0" x="84" y="61" width="393" height="295" aria-hidden="true"></rect><g class="highcharts-axis highcharts-xaxis" data-z-index="2" aria-hidden="true"><path fill="none" class="highcharts-tick" stroke="#333333" stroke-width="1" d="M 87.5 356 L 87.5 366" opacity="1"></path><path fill="none" class="highcharts-tick" stroke="#333333" stroke-width="1" d="M 157.5 356 L 157.5 366" opacity="1"></path><path fill="none" class="highcharts-tick" stroke="#333333" stroke-width="1" d="M 227.5 356 L 227.5 366" opacity="1"></path><path fill="none" class="highcharts-tick" stroke="#333333" stroke-width="1" d="M 297.5 356 L 297.5 366" opacity="1"></path><path fill="none" class="highcharts-tick" stroke="#333333" stroke-width="1" d="M 367.5 356 L 367.5 366" opacity="1"></path><path fill="none" class="highcharts-tick" stroke="#333333" stroke-width="1" d="M 437.5 356 L 437.5 366" opacity="1"></path><path fill="none" class="highcharts-axis-line" stroke="#333333" stroke-width="1" data-z-index="7" d="M 84 356.5 L 477 356.5"></path></g><g class="highcharts-axis highcharts-yaxis" data-z-index="2" aria-hidden="true"><text x="23.424999237060547" data-z-index="7" text-anchor="middle" transform="translate(0,0) rotate(270 23.424999237060547 208.5)" class="highcharts-axis-title" style="color: rgb(102, 102, 102); font-size: 0.8em; fill: rgb(102, 102, 102);" y="208.5">入境觀光客人數</text><path fill="none" class="highcharts-axis-line" stroke="#333333" stroke-width="0" data-z-index="7" d="M 84 61 L 84 356"></path></g><g class="highcharts-series-group" data-z-index="3" filter="none" aria-hidden="false"><g class="highcharts-series highcharts-series-0 highcharts-line-series highcharts-color-0" data-z-index="0.1" opacity="1" transform="translate(84,61) scale(1 1)" clip-path="url(#highcharts-dfv1kg7-94-)" aria-hidden="true"><path fill="none" d="M 3.8529411764706 170.764644 L 38.879679144385 142.2210576 L 73.906417112299 126.52465040000001 L 108.93315508021 83.3036104 L 143.95989304813 71.51840759999999 L 178.98663101604 67.85488520000001 L 214.01336898396 68.77901399999999 L 249.04010695187 62.640040400000004 L 284.06684491979 45.74390360000001 L 319.0935828877 267.0579068 L 354.12032085561 292.4984944 L 389.14705882353 278.5557088" class="highcharts-graph" data-z-index="1" stroke="#2caffe" stroke-width="2" stroke-linejoin="round" stroke-linecap="round" filter="none"></path></g><g class="highcharts-markers highcharts-series-0 highcharts-line-series highcharts-color-0" data-z-index="0.1" opacity="1" transform="translate(84,61) scale(1 1)" clip-path="none" aria-hidden="false" role="region" tabindex="-1" aria-label="亞洲地區, line 1 of 6 with 12 data points." style="outline: none;"><path fill="#2caffe" d="M 3.0000000000000004 175 A 4 4 0 1 1 3.003999999333336 174.99999800000018 Z" stroke="#ffffff" stroke-width="0" opacity="1" class="highcharts-point highcharts-color-0" tabindex="-1" role="img" aria-label="x, 100, 5,264,210. 亞洲地區." style="outline: none;"></path><path fill="#2caffe" d="M 38 146 A 4 4 0 1 1 38.00399999933334 145.99999800000018 Z" stroke="#ffffff" stroke-width="0" opacity="1" class="highcharts-point highcharts-color-0" tabindex="-1" role="img" aria-label="x, 101, 6,473,684. 亞洲地區." style="outline: none;"></path><path fill="#2caffe" d="M 73 131 A 4 4 0 1 1 73.00399999933333 130.99999800000018 Z" stroke="#ffffff" stroke-width="0" opacity="1" class="highcharts-point highcharts-color-0" tabindex="-1" role="img" aria-label="x, 102, 7,138,786. 亞洲地區." style="outline: none;"></path><path fill="#2caffe" d="M 108 87 A 4 4 0 1 1 108.00399999933333 86.99999800000016 Z" stroke="#ffffff" stroke-width="0" opacity="1" class="highcharts-point highcharts-color-0" tabindex="-1" role="img" aria-label="x, 103, 8,970,186. 亞洲地區." style="outline: none;"></path><path fill="#2caffe" d="M 143 76 A 4 4 0 1 1 143.00399999933333 75.99999800000016 Z" stroke="#ffffff" stroke-width="0" opacity="1" class="highcharts-point highcharts-color-0" tabindex="-1" role="img" aria-label="x, 104, 9,469,559. 亞洲地區." style="outline: none;"></path><path fill="#2caffe" d="M 178 72 A 4 4 0 1 1 178.00399999933333 71.99999800000016 Z" stroke="#ffffff" stroke-width="0" opacity="1" class="highcharts-point highcharts-color-0" tabindex="-1" role="img" aria-label="x, 105, 9,624,793. 亞洲地區." style="outline: none;"></path><path fill="#2caffe" d="M 214 73 A 4 4 0 1 1 214.00399999933333 72.99999800000016 Z" stroke="#ffffff" stroke-width="0" opacity="1" class="highcharts-point highcharts-color-0" tabindex="-1" role="img" aria-label="x, 106, 9,585,635. 亞洲地區." style="outline: none;"></path><path fill="#2caffe" d="M 249 67 A 4 4 0 1 1 249.00399999933333 66.99999800000016 Z" stroke="#ffffff" stroke-width="0" opacity="1" class="highcharts-point highcharts-color-0" tabindex="-1" role="img" aria-label="x, 107, 9,845,761. 亞洲地區." style="outline: none;"></path><path fill="#2caffe" d="M 284 50 A 4 4 0 1 1 284.00399999933336 49.99999800000017 Z" stroke="#ffffff" stroke-width="0" opacity="1" class="highcharts-point highcharts-color-0" tabindex="-1" role="img" aria-label="x, 108, 10,561,699. 亞洲地區." style="outline: none;"></path><path fill="#2caffe" d="M 319 271 A 4 4 0 1 1 319.00399999933336 270.9999980000002 Z" stroke="#ffffff" stroke-width="0" opacity="1" class="highcharts-point highcharts-color-0" tabindex="-1" role="img" aria-label="x, 109, 1,183,987. 亞洲地區." style="outline: none;"></path><path fill="#2caffe" d="M 354 296 A 4 4 0 1 1 354.00399999933336 295.9999980000002 Z" stroke="#ffffff" stroke-width="0" opacity="1" class="highcharts-point highcharts-color-0" tabindex="-1" role="img" aria-label="x, 110, 105,996. 亞洲地區." style="outline: none;"></path><path fill="#2caffe" d="M 389 283 A 4 4 0 1 1 389.00399999933336 282.9999980000002 Z" stroke="#ffffff" stroke-width="0" opacity="1" class="highcharts-point highcharts-color-0" tabindex="-1" role="img" aria-label="x, 111, 696,792. 亞洲地區." style="outline: none;"></path></g><g class="highcharts-series highcharts-series-1 highcharts-line-series highcharts-color-1" data-z-index="0.1" opacity="1" transform="translate(84,61) scale(1 1)" clip-path="url(#highcharts-dfv1kg7-94-)" aria-hidden="true"><path fill="none" d="M 3.8529411764706 294.7890632 L 38.879679144385 294.790786 L 73.906417112299 294.792438 L 108.93315508021 294.764944 L 143.95989304813 294.760224 L 178.98663101604 294.7482352 L 214.01336898396 294.7243048 L 249.04010695187 294.7159268 L 284.06684491979 294.7041268 L 319.0935828877 294.9409528 L 354.12032085561 294.9787364 L 389.14705882353 294.919524" class="highcharts-graph" data-z-index="1" stroke="#544fc5" stroke-width="2" stroke-linejoin="round" stroke-linecap="round" filter="none"></path></g><g class="highcharts-markers highcharts-series-1 highcharts-line-series highcharts-color-1" data-z-index="0.1" opacity="1" transform="translate(84,61) scale(1 1)" clip-path="none" aria-hidden="false" role="region" tabindex="-1" aria-label="非洲地區, line 2 of 6 with 12 data points." style="outline: none;"><path fill="#544fc5" d="M 3 291 L 7 295 L 3 299 L -1 295 Z" stroke="#ffffff" stroke-width="0" opacity="1" class="highcharts-point highcharts-color-1" tabindex="-1" role="img" aria-label="x, 100, 8,938. 非洲地區." style="outline: none;"></path><path fill="#544fc5" d="M 38 291 L 42 295 L 38 299 L 34 295 Z" stroke="#ffffff" stroke-width="0" opacity="1" class="highcharts-point highcharts-color-1" tabindex="-1" role="img" aria-label="x, 101, 8,865. 非洲地區." style="outline: none;"></path><path fill="#544fc5" d="M 73 291 L 77 295 L 73 299 L 69 295 Z" stroke="#ffffff" stroke-width="0" opacity="1" class="highcharts-point highcharts-color-1" tabindex="-1" role="img" aria-label="x, 102, 8,795. 非洲地區." style="outline: none;"></path><path fill="#544fc5" d="M 108 291 L 112 295 L 108 299 L 104 295 Z" stroke="#ffffff" stroke-width="0" opacity="1" class="highcharts-point highcharts-color-1" tabindex="-1" role="img" aria-label="x, 103, 9,960. 非洲地區." style="outline: none;"></path><path fill="#544fc5" d="M 143 291 L 147 295 L 143 299 L 139 295 Z" stroke="#ffffff" stroke-width="0" opacity="1" class="highcharts-point highcharts-color-1" tabindex="-1" role="img" aria-label="x, 104, 10,160. 非洲地區." style="outline: none;"></path><path fill="#544fc5" d="M 178 291 L 182 295 L 178 299 L 174 295 Z" stroke="#ffffff" stroke-width="0" opacity="1" class="highcharts-point highcharts-color-1" tabindex="-1" role="img" aria-label="x, 105, 10,668. 非洲地區." style="outline: none;"></path><path fill="#544fc5" d="M 214 291 L 218 295 L 214 299 L 210 295 Z" stroke="#ffffff" stroke-width="0" opacity="1" class="highcharts-point highcharts-color-1" tabindex="-1" role="img" aria-label="x, 106, 11,682. 非洲地區." style="outline: none;"></path><path fill="#544fc5" d="M 249 291 L 253 295 L 249 299 L 245 295 Z" stroke="#ffffff" stroke-width="0" opacity="1" class="highcharts-point highcharts-color-1" tabindex="-1" role="img" aria-label="x, 107, 12,037. 非洲地區." style="outline: none;"></path><path fill="#544fc5" d="M 284 291 L 288 295 L 284 299 L 280 295 Z" stroke="#ffffff" stroke-width="0" opacity="1" class="highcharts-point highcharts-color-1" tabindex="-1" role="img" aria-label="x, 108, 12,537. 非洲地區." style="outline: none;"></path><path fill="#544fc5" d="M 319 291 L 323 295 L 319 299 L 315 295 Z" stroke="#ffffff" stroke-width="0" opacity="1" class="highcharts-point highcharts-color-1" tabindex="-1" role="img" aria-label="x, 109, 2,502. 非洲地區." style="outline: none;"></path><path fill="#544fc5" d="M 354 291 L 358 295 L 354 299 L 350 295 Z" stroke="#ffffff" stroke-width="0" opacity="1" class="highcharts-point highcharts-color-1" tabindex="-1" role="img" aria-label="x, 110, 901. 非洲地區." style="outline: none;"></path><path fill="#544fc5" d="M 389 291 L 393 295 L 389 299 L 385 295 Z" stroke="#ffffff" stroke-width="0" opacity="1" class="highcharts-point highcharts-color-1" tabindex="-1" role="img" aria-label="x, 111, 3,410. 非洲地區." style="outline: none;"></path></g><g class="highcharts-series highcharts-series-2 highcharts-line-series highcharts-color-2" data-z-index="0.1" opacity="1" transform="translate(84,61) scale(1 1)" clip-path="url(#highcharts-dfv1kg7-94-)" aria-hidden="true"><path fill="none" d="M 3.8529411764706 283.3147904 L 38.879679144385 283.2567108 L 73.906417112299 283.1422744 L 108.93315508021 281.65715 L 143.95989304813 281.1186688 L 178.98663101604 279.6756468 L 214.01336898396 278.43164360000003 L 249.04010695187 277.7135192 L 284.06684491979 276.9164056 L 319.0935828877 292.4956388 L 354.12032085561 294.6544488 L 389.14705882353 292.4313288" class="highcharts-graph" data-z-index="1" stroke="#00e272" stroke-width="2" stroke-linejoin="round" stroke-linecap="round" filter="none"></path></g><g class="highcharts-markers highcharts-series-2 highcharts-line-series highcharts-color-2" data-z-index="0.1" opacity="1" transform="translate(84,61) scale(1 1)" clip-path="none" aria-hidden="false" role="region" tabindex="-1" aria-label="美洲地區, line 3 of 6 with 12 data points." style="outline: none;"><path fill="#00e272" d="M -1 279 L 7 279 L 7 287 L -1 287 Z" stroke="#ffffff" stroke-width="0" opacity="1" class="highcharts-point highcharts-color-2" tabindex="-1" role="img" aria-label="x, 100, 495,136. 美洲地區." style="outline: none;"></path><path fill="#00e272" d="M 34 279 L 42 279 L 42 287 L 34 287 Z" stroke="#ffffff" stroke-width="0" opacity="1" class="highcharts-point highcharts-color-2" tabindex="-1" role="img" aria-label="x, 101, 497,597. 美洲地區." style="outline: none;"></path><path fill="#00e272" d="M 69 279 L 77 279 L 77 287 L 69 287 Z" stroke="#ffffff" stroke-width="0" opacity="1" class="highcharts-point highcharts-color-2" tabindex="-1" role="img" aria-label="x, 102, 502,446. 美洲地區." style="outline: none;"></path><path fill="#00e272" d="M 104 278 L 112 278 L 112 286 L 104 286 Z" stroke="#ffffff" stroke-width="0" opacity="1" class="highcharts-point highcharts-color-2" tabindex="-1" role="img" aria-label="x, 103, 565,375. 美洲地區." style="outline: none;"></path><path fill="#00e272" d="M 139 277 L 147 277 L 147 285 L 139 285 Z" stroke="#ffffff" stroke-width="0" opacity="1" class="highcharts-point highcharts-color-2" tabindex="-1" role="img" aria-label="x, 104, 588,192. 美洲地區." style="outline: none;"></path><path fill="#00e272" d="M 174 276 L 182 276 L 182 284 L 174 284 Z" stroke="#ffffff" stroke-width="0" opacity="1" class="highcharts-point highcharts-color-2" tabindex="-1" role="img" aria-label="x, 105, 649,337. 美洲地區." style="outline: none;"></path><path fill="#00e272" d="M 210 274 L 218 274 L 218 282 L 210 282 Z" stroke="#ffffff" stroke-width="0" opacity="1" class="highcharts-point highcharts-color-2" tabindex="-1" role="img" aria-label="x, 106, 702,049. 美洲地區." style="outline: none;"></path><path fill="#00e272" d="M 245 274 L 253 274 L 253 282 L 245 282 Z" stroke="#ffffff" stroke-width="0" opacity="1" class="highcharts-point highcharts-color-2" tabindex="-1" role="img" aria-label="x, 107, 732,478. 美洲地區." style="outline: none;"></path><path fill="#00e272" d="M 280 273 L 288 273 L 288 281 L 280 281 Z" stroke="#ffffff" stroke-width="0" opacity="1" class="highcharts-point highcharts-color-2" tabindex="-1" role="img" aria-label="x, 108, 766,254. 美洲地區." style="outline: none;"></path><path fill="#00e272" d="M 315 288 L 323 288 L 323 296 L 315 296 Z" stroke="#ffffff" stroke-width="0" opacity="1" class="highcharts-point highcharts-color-2" tabindex="-1" role="img" aria-label="x, 109, 106,117. 美洲地區." style="outline: none;"></path><path fill="#00e272" d="M 350 291 L 358 291 L 358 299 L 350 299 Z" stroke="#ffffff" stroke-width="0" opacity="1" class="highcharts-point highcharts-color-2" tabindex="-1" role="img" aria-label="x, 110, 14,642. 美洲地區." style="outline: none;"></path><path fill="#00e272" d="M 385 288 L 393 288 L 393 296 L 385 296 Z" stroke="#ffffff" stroke-width="0" opacity="1" class="highcharts-point highcharts-color-2" tabindex="-1" role="img" aria-label="x, 111, 108,842. 美洲地區." style="outline: none;"></path></g><g class="highcharts-series highcharts-series-3 highcharts-line-series highcharts-color-3" data-z-index="0.1" opacity="1" transform="translate(84,61) scale(1 1)" clip-path="url(#highcharts-dfv1kg7-94-)" aria-hidden="true"><path fill="none" d="M 3.8529411764706 293.335256 L 38.879679144385 293.2202296 L 73.906417112299 293.1657608 L 108.93315508021 292.8023916 L 143.95989304813 292.8568132 L 178.98663101604 292.6818664 L 214.01336898396 292.4430816 L 249.04010695187 292.1279508 L 284.06684491979 291.817304 L 319.0935828877 294.4664984 L 354.12032085561 294.9679512 L 389.14705882353 294.647888" class="highcharts-graph" data-z-index="1" stroke="#fe6a35" stroke-width="2" stroke-linejoin="round" stroke-linecap="round" filter="none"></path></g><g class="highcharts-markers highcharts-series-3 highcharts-line-series highcharts-color-3" data-z-index="0.1" opacity="1" transform="translate(84,61) scale(1 1)" clip-path="none" aria-hidden="false" role="region" tabindex="-1" aria-label="大洋洲地區, line 4 of 6 with 12 data points." style="outline: none;"><path fill="#fe6a35" d="M 3 289 L 7 297 L -1 297 Z" stroke="#ffffff" stroke-width="0" opacity="1" class="highcharts-point highcharts-color-3" tabindex="-1" role="img" aria-label="x, 100, 70,540. 大洋洲地區." style="outline: none;"></path><path fill="#fe6a35" d="M 38 289 L 42 297 L 34 297 Z" stroke="#ffffff" stroke-width="0" opacity="1" class="highcharts-point highcharts-color-3" tabindex="-1" role="img" aria-label="x, 101, 75,414. 大洋洲地區." style="outline: none;"></path><path fill="#fe6a35" d="M 73 289 L 77 297 L 69 297 Z" stroke="#ffffff" stroke-width="0" opacity="1" class="highcharts-point highcharts-color-3" tabindex="-1" role="img" aria-label="x, 102, 77,722. 大洋洲地區." style="outline: none;"></path><path fill="#fe6a35" d="M 108 289 L 112 297 L 104 297 Z" stroke="#ffffff" stroke-width="0" opacity="1" class="highcharts-point highcharts-color-3" tabindex="-1" role="img" aria-label="x, 103, 93,119. 大洋洲地區." style="outline: none;"></path><path fill="#fe6a35" d="M 143 289 L 147 297 L 139 297 Z" stroke="#ffffff" stroke-width="0" opacity="1" class="highcharts-point highcharts-color-3" tabindex="-1" role="img" aria-label="x, 104, 90,813. 大洋洲地區." style="outline: none;"></path><path fill="#fe6a35" d="M 178 289 L 182 297 L 174 297 Z" stroke="#ffffff" stroke-width="0" opacity="1" class="highcharts-point highcharts-color-3" tabindex="-1" role="img" aria-label="x, 105, 98,226. 大洋洲地區." style="outline: none;"></path><path fill="#fe6a35" d="M 214 288 L 218 296 L 210 296 Z" stroke="#ffffff" stroke-width="0" opacity="1" class="highcharts-point highcharts-color-3" tabindex="-1" role="img" aria-label="x, 106, 108,344. 大洋洲地區." style="outline: none;"></path><path fill="#fe6a35" d="M 249 288 L 253 296 L 245 296 Z" stroke="#ffffff" stroke-width="0" opacity="1" class="highcharts-point highcharts-color-3" tabindex="-1" role="img" aria-label="x, 107, 121,697. 大洋洲地區." style="outline: none;"></path><path fill="#fe6a35" d="M 284 288 L 288 296 L 280 296 Z" stroke="#ffffff" stroke-width="0" opacity="1" class="highcharts-point highcharts-color-3" tabindex="-1" role="img" aria-label="x, 108, 134,860. 大洋洲地區." style="outline: none;"></path><path fill="#fe6a35" d="M 319 290 L 323 298 L 315 298 Z" stroke="#ffffff" stroke-width="0" opacity="1" class="highcharts-point highcharts-color-3" tabindex="-1" role="img" aria-label="x, 109, 22,606. 大洋洲地區." style="outline: none;"></path><path fill="#fe6a35" d="M 354 291 L 358 299 L 350 299 Z" stroke="#ffffff" stroke-width="0" opacity="1" class="highcharts-point highcharts-color-3" tabindex="-1" role="img" aria-label="x, 110, 1,358. 大洋洲地區." style="outline: none;"></path><path fill="#fe6a35" d="M 389 291 L 393 299 L 385 299 Z" stroke="#ffffff" stroke-width="0" opacity="1" class="highcharts-point highcharts-color-3" tabindex="-1" role="img" aria-label="x, 111, 14,920. 大洋洲地區." style="outline: none;"></path></g><g class="highcharts-series highcharts-series-4 highcharts-line-series highcharts-color-4" data-z-index="0.1" opacity="1" transform="translate(84,61) scale(1 1)" clip-path="url(#highcharts-dfv1kg7-94-)" aria-hidden="true"><path fill="none" d="M 3.8529411764706 289.9933072 L 38.879679144385 289.854138 L 73.906417112299 289.7357368 L 108.93315508021 288.748832 L 143.95989304813 288.532774 L 178.98663101604 287.9257584 L 214.01336898396 287.209876 L 249.04010695187 286.7377816 L 284.06684491979 285.8726528 L 319.0935828877 293.5955168 L 354.12032085561 294.6126532 L 389.14705882353 293.442636" class="highcharts-graph" data-z-index="1" stroke="#6b8abc" stroke-width="2" stroke-linejoin="round" stroke-linecap="round" filter="none"></path></g><g class="highcharts-markers highcharts-series-4 highcharts-line-series highcharts-color-4" data-z-index="0.1" opacity="1" transform="translate(84,61) scale(1 1)" clip-path="none" aria-hidden="false" role="region" tabindex="-1" aria-label="歐洲地區, line 5 of 6 with 12 data points." style="outline: none;"><path fill="#6b8abc" d="M -1 286 L 7 286 L 3 294 Z" stroke="#ffffff" stroke-width="0" opacity="1" class="highcharts-point highcharts-color-4" tabindex="-1" role="img" aria-label="x, 100, 212,148. 歐洲地區." style="outline: none;"></path><path fill="#6b8abc" d="M 34 286 L 42 286 L 38 294 Z" stroke="#ffffff" stroke-width="0" opacity="1" class="highcharts-point highcharts-color-4" tabindex="-1" role="img" aria-label="x, 101, 218,045. 歐洲地區." style="outline: none;"></path><path fill="#6b8abc" d="M 69 286 L 77 286 L 73 294 Z" stroke="#ffffff" stroke-width="0" opacity="1" class="highcharts-point highcharts-color-4" tabindex="-1" role="img" aria-label="x, 102, 223,062. 歐洲地區." style="outline: none;"></path><path fill="#6b8abc" d="M 104 285 L 112 285 L 108 293 Z" stroke="#ffffff" stroke-width="0" opacity="1" class="highcharts-point highcharts-color-4" tabindex="-1" role="img" aria-label="x, 103, 264,880. 歐洲地區." style="outline: none;"></path><path fill="#6b8abc" d="M 139 285 L 147 285 L 143 293 Z" stroke="#ffffff" stroke-width="0" opacity="1" class="highcharts-point highcharts-color-4" tabindex="-1" role="img" aria-label="x, 104, 274,035. 歐洲地區." style="outline: none;"></path><path fill="#6b8abc" d="M 174 284 L 182 284 L 178 292 Z" stroke="#ffffff" stroke-width="0" opacity="1" class="highcharts-point highcharts-color-4" tabindex="-1" role="img" aria-label="x, 105, 299,756. 歐洲地區." style="outline: none;"></path><path fill="#6b8abc" d="M 210 283 L 218 283 L 214 291 Z" stroke="#ffffff" stroke-width="0" opacity="1" class="highcharts-point highcharts-color-4" tabindex="-1" role="img" aria-label="x, 106, 330,090. 歐洲地區." style="outline: none;"></path><path fill="#6b8abc" d="M 245 283 L 253 283 L 249 291 Z" stroke="#ffffff" stroke-width="0" opacity="1" class="highcharts-point highcharts-color-4" tabindex="-1" role="img" aria-label="x, 107, 350,094. 歐洲地區." style="outline: none;"></path><path fill="#6b8abc" d="M 280 282 L 288 282 L 284 290 Z" stroke="#ffffff" stroke-width="0" opacity="1" class="highcharts-point highcharts-color-4" tabindex="-1" role="img" aria-label="x, 108, 386,752. 歐洲地區." style="outline: none;"></path><path fill="#6b8abc" d="M 315 290 L 323 290 L 319 298 Z" stroke="#ffffff" stroke-width="0" opacity="1" class="highcharts-point highcharts-color-4" tabindex="-1" role="img" aria-label="x, 109, 59,512. 歐洲地區." style="outline: none;"></path><path fill="#6b8abc" d="M 350 291 L 358 291 L 354 299 Z" stroke="#ffffff" stroke-width="0" opacity="1" class="highcharts-point highcharts-color-4" tabindex="-1" role="img" aria-label="x, 110, 16,413. 歐洲地區." style="outline: none;"></path><path fill="#6b8abc" d="M 385 289 L 393 289 L 389 297 Z" stroke="#ffffff" stroke-width="0" opacity="1" class="highcharts-point highcharts-color-4" tabindex="-1" role="img" aria-label="x, 111, 65,990. 歐洲地區." style="outline: none;"></path></g><g class="highcharts-series highcharts-series-5 highcharts-line-series highcharts-color-5" data-z-index="0.1" opacity="1" transform="translate(84,61) scale(1 1)" clip-path="url(#highcharts-dfv1kg7-94-)" aria-hidden="true"><path fill="none" d="M 3.8529411764706 294.1383168 L 38.879679144385 294.106386 L 73.906417112299 293.4549316 L 108.93315508021 294.8422576 L 143.95989304813 294.8341864 L 178.98663101604 294.8230236 L 214.01336898396 294.9574964 L 249.04010695187 294.890496 L 284.06684491979 294.9527292 L 319.0935828877 294.9259668 L 354.12032085561 294.9724116 L 389.14705882353 294.8582112" class="highcharts-graph" data-z-index="1" stroke="#d568fb" stroke-width="2" stroke-linejoin="round" stroke-linecap="round" filter="none"></path></g><g class="highcharts-markers highcharts-series-5 highcharts-line-series highcharts-color-5" data-z-index="0.1" opacity="1" transform="translate(84,61) scale(1 1)" clip-path="none" aria-hidden="false" role="region" tabindex="-1" aria-label="其他未列明, line 6 of 6 with 12 data points." style="outline: none;"><path fill="#d568fb" d="M 3.0000000000000004 298 A 4 4 0 1 1 3.003999999333336 297.9999980000002 Z" stroke="#ffffff" stroke-width="0" opacity="1" class="highcharts-point highcharts-color-5" tabindex="-1" role="img" aria-label="x, 100, 36,512. 其他未列明." style="outline: none;"></path><path fill="#d568fb" d="M 38 298 A 4 4 0 1 1 38.00399999933334 297.9999980000002 Z" stroke="#ffffff" stroke-width="0" opacity="1" class="highcharts-point highcharts-color-5" tabindex="-1" role="img" aria-label="x, 101, 37,865. 其他未列明." style="outline: none;"></path><path fill="#d568fb" d="M 73 297 A 4 4 0 1 1 73.00399999933333 296.9999980000002 Z" stroke="#ffffff" stroke-width="0" opacity="1" class="highcharts-point highcharts-color-5" tabindex="-1" role="img" aria-label="x, 102, 65,469. 其他未列明." style="outline: none;"></path><path fill="#d568fb" d="M 108 299 A 4 4 0 1 1 108.00399999933333 298.9999980000002 Z" stroke="#ffffff" stroke-width="0" opacity="1" class="highcharts-point highcharts-color-5" tabindex="-1" role="img" aria-label="x, 103, 6,684. 其他未列明." style="outline: none;"></path><path fill="#d568fb" d="M 143 299 A 4 4 0 1 1 143.00399999933333 298.9999980000002 Z" stroke="#ffffff" stroke-width="0" opacity="1" class="highcharts-point highcharts-color-5" tabindex="-1" role="img" aria-label="x, 104, 7,026. 其他未列明." style="outline: none;"></path><path fill="#d568fb" d="M 178 299 A 4 4 0 1 1 178.00399999933333 298.9999980000002 Z" stroke="#ffffff" stroke-width="0" opacity="1" class="highcharts-point highcharts-color-5" tabindex="-1" role="img" aria-label="x, 105, 7,499. 其他未列明." style="outline: none;"></path><path fill="#d568fb" d="M 214 299 A 4 4 0 1 1 214.00399999933333 298.9999980000002 Z" stroke="#ffffff" stroke-width="0" opacity="1" class="highcharts-point highcharts-color-5" tabindex="-1" role="img" aria-label="x, 106, 1,801. 其他未列明." style="outline: none;"></path><path fill="#d568fb" d="M 249 299 A 4 4 0 1 1 249.00399999933333 298.9999980000002 Z" stroke="#ffffff" stroke-width="0" opacity="1" class="highcharts-point highcharts-color-5" tabindex="-1" role="img" aria-label="x, 107, 4,640. 其他未列明." style="outline: none;"></path><path fill="#d568fb" d="M 284 299 A 4 4 0 1 1 284.00399999933336 298.9999980000002 Z" stroke="#ffffff" stroke-width="0" opacity="1" class="highcharts-point highcharts-color-5" tabindex="-1" role="img" aria-label="x, 108, 2,003. 其他未列明." style="outline: none;"></path><path fill="#d568fb" d="M 319 299 A 4 4 0 1 1 319.00399999933336 298.9999980000002 Z" stroke="#ffffff" stroke-width="0" opacity="1" class="highcharts-point highcharts-color-5" tabindex="-1" role="img" aria-label="x, 109, 3,137. 其他未列明." style="outline: none;"></path><path fill="#d568fb" d="M 354 299 A 4 4 0 1 1 354.00399999933336 298.9999980000002 Z" stroke="#ffffff" stroke-width="0" opacity="1" class="highcharts-point highcharts-color-5" tabindex="-1" role="img" aria-label="x, 110, 1,169. 其他未列明." style="outline: none;"></path><path fill="#d568fb" d="M 389 299 A 4 4 0 1 1 389.00399999933336 298.9999980000002 Z" stroke="#ffffff" stroke-width="0" opacity="1" class="highcharts-point highcharts-color-5" tabindex="-1" role="img" aria-label="x, 111, 6,008. 其他未列明." style="outline: none;"></path></g></g><g class="highcharts-label highcharts-series-label highcharts-series-label-0 highcharts-color-0" opacity="1" data-z-index="3" transform="translate(256,131)" aria-hidden="true"><path fill="none" class="highcharts-label-box" d="M 0 0" stroke="#2caffe" stroke-width="1"></path><text x="0" data-z-index="1" y="12" style="color: rgb(44, 175, 254); font-size: 0.8em; font-weight: bold; fill: rgb(44, 175, 254);">亞洲地區</text></g><g class="highcharts-label highcharts-series-label highcharts-series-label-2 highcharts-color-2" opacity="1" data-z-index="3" transform="translate(302,322)" aria-hidden="true"><path fill="none" class="highcharts-label-box" d="M 0 0" stroke="#00e272" stroke-width="1"></path><text x="0" data-z-index="1" y="12" style="color: rgb(0, 226, 114); font-size: 0.8em; font-weight: bold; fill: rgb(0, 226, 114);">美洲地區</text></g><text x="10" text-anchor="start" class="highcharts-title" data-z-index="4" style="font-size: 1.2em; color: rgb(51, 51, 51); font-weight: bold; fill: rgb(51, 51, 51);" y="25" aria-hidden="true">台灣110-111年入境觀光客人數統計圖(依地區)</text><text x="10" text-anchor="start" class="highcharts-subtitle" data-z-index="4" style="color: rgb(102, 102, 102); font-size: 0.8em; fill: rgb(102, 102, 102);" y="46" aria-hidden="true">資料來源:中華民國觀光署</text><text x="10" text-anchor="start" class="highcharts-caption" data-z-index="4" style="color: rgb(102, 102, 102); font-size: 0.8em; fill: rgb(102, 102, 102);" y="397" aria-hidden="true"></text><g class="highcharts-legend highcharts-no-tooltip" data-z-index="7" transform="translate(489,135)" aria-hidden="true"><rect fill="none" class="highcharts-legend-box" rx="0" ry="0" stroke="#999999" stroke-width="0" filter="none" x="0" y="0" width="101" height="125"></rect><g data-z-index="1"><g><g class="highcharts-legend-item highcharts-line-series highcharts-color-0 highcharts-series-0" data-z-index="1" transform="translate(8,3)"><path fill="none" class="highcharts-graph" stroke-width="2" stroke-linecap="round" d="M 1 13 L 15 13" stroke="#2caffe"></path><path fill="#2caffe" d="M 8 17 A 4 4 0 1 1 8.003999999333336 16.99999800000017 Z" class="highcharts-point" stroke="#ffffff" stroke-width="0" opacity="1"></path><text x="21" text-anchor="start" data-z-index="2" style="color: rgb(51, 51, 51); cursor: pointer; font-size: 0.8em; text-decoration: none; fill: rgb(51, 51, 51);" y="17">亞洲地區</text></g><g class="highcharts-legend-item highcharts-line-series highcharts-color-1 highcharts-series-1" data-z-index="1" transform="translate(8,22)"><path fill="none" class="highcharts-graph" stroke-width="2" stroke-linecap="round" d="M 1 13 L 15 13" stroke="#544fc5"></path><path fill="#544fc5" d="M 8 9 L 12 13 L 8 17 L 4 13 Z" class="highcharts-point" stroke="#ffffff" stroke-width="0" opacity="1"></path><text x="21" y="17" text-anchor="start" data-z-index="2" style="color: rgb(51, 51, 51); cursor: pointer; font-size: 0.8em; text-decoration: none; fill: rgb(51, 51, 51);">非洲地區</text></g><g class="highcharts-legend-item highcharts-line-series highcharts-color-2 highcharts-series-2" data-z-index="1" transform="translate(8,41)"><path fill="none" class="highcharts-graph" stroke-width="2" stroke-linecap="round" d="M 1 13 L 15 13" stroke="#00e272"></path><path fill="#00e272" d="M 4 9 L 12 9 L 12 17 L 4 17 Z" class="highcharts-point" stroke="#ffffff" stroke-width="0" opacity="1"></path><text x="21" y="17" text-anchor="start" data-z-index="2" style="color: rgb(51, 51, 51); cursor: pointer; font-size: 0.8em; text-decoration: none; fill: rgb(51, 51, 51);">美洲地區</text></g><g class="highcharts-legend-item highcharts-line-series highcharts-color-3 highcharts-series-3" data-z-index="1" transform="translate(8,60)"><path fill="none" class="highcharts-graph" stroke-width="2" stroke-linecap="round" d="M 1 13 L 15 13" stroke="#fe6a35"></path><path fill="#fe6a35" d="M 8 9 L 12 17 L 4 17 Z" class="highcharts-point" stroke="#ffffff" stroke-width="0" opacity="1"></path><text x="21" y="17" text-anchor="start" data-z-index="2" style="color: rgb(51, 51, 51); cursor: pointer; font-size: 0.8em; text-decoration: none; fill: rgb(51, 51, 51);">大洋洲地區</text></g><g class="highcharts-legend-item highcharts-line-series highcharts-color-4 highcharts-series-4" data-z-index="1" transform="translate(8,79)"><path fill="none" class="highcharts-graph" stroke-width="2" stroke-linecap="round" d="M 1 13 L 15 13" stroke="#6b8abc"></path><path fill="#6b8abc" d="M 4 9 L 12 9 L 8 17 Z" class="highcharts-point" stroke="#ffffff" stroke-width="0" opacity="1"></path><text x="21" y="17" text-anchor="start" data-z-index="2" style="color: rgb(51, 51, 51); cursor: pointer; font-size: 0.8em; text-decoration: none; fill: rgb(51, 51, 51);">歐洲地區</text></g><g class="highcharts-legend-item highcharts-line-series highcharts-color-5 highcharts-series-5" data-z-index="1" transform="translate(8,98)"><path fill="none" class="highcharts-graph" stroke-width="2" stroke-linecap="round" d="M 1 13 L 15 13" stroke="#d568fb"></path><path fill="#d568fb" d="M 8 17 A 4 4 0 1 1 8.003999999333336 16.99999800000017 Z" class="highcharts-point" stroke="#ffffff" stroke-width="0" opacity="1"></path><text x="21" y="17" text-anchor="start" data-z-index="2" style="color: rgb(51, 51, 51); cursor: pointer; font-size: 0.8em; text-decoration: none; fill: rgb(51, 51, 51);">其他未列明</text></g></g></g></g><g class="highcharts-axis-labels highcharts-xaxis-labels" data-z-index="7" aria-hidden="true"><text x="87.852941176471" text-anchor="middle" transform="translate(0,0)" style="color: rgb(51, 51, 51); cursor: default; font-size: 0.8em; fill: rgb(51, 51, 51);" y="383" opacity="1">100</text><text x="157.9064171123" text-anchor="middle" transform="translate(0,0)" style="color: rgb(51, 51, 51); cursor: default; font-size: 0.8em; fill: rgb(51, 51, 51);" y="383" opacity="1">102</text><text x="227.95989304813" text-anchor="middle" transform="translate(0,0)" style="color: rgb(51, 51, 51); cursor: default; font-size: 0.8em; fill: rgb(51, 51, 51);" y="383" opacity="1">104</text><text x="298.01336898396" text-anchor="middle" transform="translate(0,0)" style="color: rgb(51, 51, 51); cursor: default; font-size: 0.8em; fill: rgb(51, 51, 51);" y="383" opacity="1">106</text><text x="368.06684491979" text-anchor="middle" transform="translate(0,0)" style="color: rgb(51, 51, 51); cursor: default; font-size: 0.8em; fill: rgb(51, 51, 51);" y="383" opacity="1">108</text><text x="438.12032085561" text-anchor="middle" transform="translate(0,0)" style="color: rgb(51, 51, 51); cursor: default; font-size: 0.8em; fill: rgb(51, 51, 51);" y="383" opacity="1">110</text></g><g class="highcharts-axis-labels highcharts-yaxis-labels" data-z-index="7" aria-hidden="true"><text x="69" text-anchor="end" transform="translate(0,0)" style="color: rgb(51, 51, 51); cursor: default; font-size: 0.8em; fill: rgb(51, 51, 51);" y="361" opacity="1">0</text><text x="69" text-anchor="end" transform="translate(0,0)" style="color: rgb(51, 51, 51); cursor: default; font-size: 0.8em; fill: rgb(51, 51, 51);" y="302" opacity="1">2.5M</text><text x="69" text-anchor="end" transform="translate(0,0)" style="color: rgb(51, 51, 51); cursor: default; font-size: 0.8em; fill: rgb(51, 51, 51);" y="243" opacity="1">5M</text><text x="69" text-anchor="end" transform="translate(0,0)" style="color: rgb(51, 51, 51); cursor: default; font-size: 0.8em; fill: rgb(51, 51, 51);" y="184" opacity="1">7.5M</text><text x="69" text-anchor="end" transform="translate(0,0)" style="color: rgb(51, 51, 51); cursor: default; font-size: 0.8em; fill: rgb(51, 51, 51);" y="125" opacity="1">10M</text><text x="69" text-anchor="end" transform="translate(0,0)" style="color: rgb(51, 51, 51); cursor: default; font-size: 0.8em; fill: rgb(51, 51, 51);" y="66" opacity="1">12.5M</text></g><text x="590" class="highcharts-credits" text-anchor="end" data-z-index="8" y="395" style="cursor: pointer; color: rgb(153, 153, 153); font-size: 0.6em; fill: rgb(153, 153, 153);" aria-label="Chart credits: Highcharts.com" aria-hidden="false">Highcharts.com</text></svg>